<?xml version="1.0"?>
<svg xmlns="http://www.w3.org/2000/svg" xmlns:xlink="http://www.w3.org/1999/xlink" version="1.1" id="Capa_1" x="0px" y="0px" viewBox="0 0 512 512" style="enable-background:new 0 0 512 512;" xml:space="preserve" width="512px" height="512px" class=""><g><path style="fill:#E3E9ED" d="M382.143,353.873l-78-78c-7.799-7.797-20.486-7.797-28.285,0c-7.798,7.799-7.798,20.486,0,28.285  l78,78c3.778,3.777,8.8,5.857,14.143,5.857s10.364-2.08,14.143-5.857C389.94,374.36,389.94,361.672,382.143,353.873z" data-original="#D7C8C5" class="" data-old_color="#D7C8C5"/><path style="fill:#1E90FF" d="M509.657,464.417l-120-120c-3.125-3.123-8.189-3.123-11.314,0l-33.941,33.941  c-3.124,3.125-3.124,8.189,0,11.314l120,120c3.083,3.081,8.231,3.081,11.314,0l33.941-33.941  C512.781,472.607,512.781,467.542,509.657,464.417z" data-original="#55D4BE" class="" data-old_color="#55D4BE"/><path style="fill:#1273EB" d="M354.372,368.388l-9.971,9.971c-3.124,3.125-3.124,8.189,0,11.314l120,120  c3.083,3.082,8.231,3.082,11.314,0l9.971-9.971L354.372,368.388z" data-original="#24BFB2" class="" data-old_color="#24BFB2"/><path style="fill:#1E90FF" d="M176,0.016c-97.047,0-176,78.953-176,176s78.953,176,176,176s176-78.953,176-176  S273.047,0.016,176,0.016z" data-original="#FBDC40" class="" data-old_color="#FBDC40"/><path style="fill:#1E90FF" d="M176,16.016c-88.224,0-160,71.776-160,160s71.776,160,160,160s160-71.776,160-160  S264.224,16.016,176,16.016z" data-original="#FAD000" class="" data-old_color="#FAD000"/><path style="fill:#E3E9ED" d="M176,32.016c-79.402,0-144,64.598-144,144s64.598,144,144,144s144-64.598,144-144  S255.402,32.016,176,32.016z" data-original="#E4DAD8" class="" data-old_color="#E4DAD8"/><path style="fill:#FFFFFF" d="M176,48.016c-70.58,0-128,57.42-128,128s57.42,128,128,128s128-57.42,128-128  S246.58,48.016,176,48.016z" data-original="#F2EDEC" class="active-path" data-old_color="#F2EDEC"/><rect x="112" y="144.02" style="fill:#E3E9ED" width="128" height="96" data-original="#E4DAD8" class="" data-old_color="#E4DAD8"/><rect x="112" y="144.02" style="fill:#E3E9ED" width="16" height="96" data-original="#D7C8C5" class="" data-old_color="#D7C8C5"/><path style="fill:#E3E9ED" d="M256,144.016H96l13.988-34.971c1.215-3.037,4.157-5.029,7.428-5.029h117.167  c3.271,0,6.213,1.992,7.428,5.029L256,144.016z" data-original="#E4DAD8" class="" data-old_color="#E4DAD8"/><path style="fill:#956B64;" d="M168,184.016h-32c-4.418,0-8,3.582-8,8v48c0,4.418,3.582,8,8,8h32c4.418,0,8-3.582,8-8v-48  C176,187.598,172.418,184.016,168,184.016z" data-original="#956B64" class=""/><g>
	<rect x="160" y="104.02" style="fill:#F56C6C;" width="32" height="40" data-original="#F56C6C" class=""/>
	<path style="fill:#F56C6C;" d="M256,144.016h-32l-8-40h18.584c3.271,0,6.213,1.992,7.428,5.029L256,144.016z" data-original="#F56C6C" class=""/>
	<path style="fill:#F56C6C;" d="M128,144.016H96l13.988-34.971c1.215-3.037,4.157-5.029,7.428-5.029H136L128,144.016z" data-original="#F56C6C" class=""/>
</g><g>
	<path style="fill:#DB4D4D;" d="M248,168.016h-24v-24h32v16C256,164.434,252.418,168.016,248,168.016z" data-original="#DB4D4D" class=""/>
	<rect x="160" y="144.02" style="fill:#DB4D4D;" width="32" height="24" data-original="#DB4D4D" class=""/>
	<path style="fill:#DB4D4D;" d="M128,168.016h-24c-4.418,0-8-3.582-8-8v-16h32V168.016z" data-original="#DB4D4D" class=""/>
</g><g>
	<rect x="128" y="144.02" style="fill:#E3E9ED" width="32" height="24" data-original="#D7C8C5" class="" data-old_color="#D7C8C5"/>
	<rect x="192" y="144.02" style="fill:#E3E9ED" width="32" height="24" data-original="#D7C8C5" class="" data-old_color="#D7C8C5"/>
</g><path style="fill:#885951;" d="M256,248.016H96c-4.418,0-8-3.582-8-8s3.582-8,8-8h160c4.418,0,8,3.582,8,8  S260.418,248.016,256,248.016z" data-original="#885951" class=""/><path style="fill:#1E90FF" d="M216,184.016h-24c-4.418,0-8,3.582-8,8v24c0,4.418,3.582,8,8,8h24c4.418,0,8-3.582,8-8v-24  C224,187.598,220.418,184.016,216,184.016z" data-original="#7FDECF" class="" data-old_color="#7FDECF"/></g> </svg>
