<svg width="68" height="52" viewBox="0 0 68 52" fill="none" xmlns="http://www.w3.org/2000/svg">
<path d="M34 44C43.9411 44 52 35.9411 52 26C52 16.0589 43.9411 8 34 8C24.0589 8 16 16.0589 16 26C16 35.9411 24.0589 44 34 44Z" fill="#FFCC4D"/>
<path d="M34 29C30.377 29 27.973 28.578 25 28C24.321 27.869 23 28 23 30C23 34 27.595 39 34 39C40.404 39 45 34 45 30C45 28 43.679 27.868 43 28C40.027 28.578 37.623 29 34 29Z" fill="#664500"/>
<path d="M25 30C25 30 28 31 34 31C40 31 43 30 43 30C43 30 41 34 34 34C27 34 25 30 25 30Z" fill="white"/>
<path d="M28 25C29.3807 25 30.5 23.433 30.5 21.5C30.5 19.567 29.3807 18 28 18C26.6193 18 25.5 19.567 25.5 21.5C25.5 23.433 26.6193 25 28 25Z" fill="#664500"/>
<path d="M40 25C41.3807 25 42.5 23.433 42.5 21.5C42.5 19.567 41.3807 18 40 18C38.6193 18 37.5 19.567 37.5 21.5C37.5 23.433 38.6193 25 40 25Z" fill="#664500"/>
</svg>
