<?xml version="1.0"?>
<svg xmlns="http://www.w3.org/2000/svg" id="Solid" height="512px" viewBox="0 0 512 512" width="512px" class=""><g><path d="m184 240v48h-16v-48zm8 80a127.2 127.2 0 0 0 61.906-16h-123.812a127.2 127.2 0 0 0 61.906 16zm197.354 46.829-22.516-22.518-22.527 22.526 22.518 22.517zm63.459 108.5a15.906 15.906 0 0 0 22.514 0l.007-.006a15.907 15.907 0 0 0 0-22.51l-74.666-74.673-22.524 22.524zm-336.532-315.329-12.131 18.2a16 16 0 0 0 31.85-2.2 8 8 0 0 1 16 0 16 16 0 0 0 32 0 8 8 0 0 1 16 0 16 16 0 0 0 32 0 8 8 0 0 1 16 0 16 16 0 0 0 31.85 2.2l-12.131-18.2zm123.719 37.144a31.957 31.957 0 0 1 -48 0 31.957 31.957 0 0 1 -48 0 31.933 31.933 0 0 1 -24 10.856v80h32v-56a8 8 0 0 1 8-8h64a8 8 0 0 1 8 8v56h32v-80a31.933 31.933 0 0 1 -24-10.856zm-40 42.856v48h16v-48zm56-112h-128a8.009 8.009 0 0 0 -8 8v8h144v-8a8.009 8.009 0 0 0 -8-8zm-152 156.864v-81.164a32.012 32.012 0 0 1 -16-27.7 8 8 0 0 1 1.344-4.438l14.656-21.984v-13.578a24.028 24.028 0 0 1 24-24h128a24.028 24.028 0 0 1 24 24v13.578l14.656 21.984a8 8 0 0 1 1.344 4.438 32.012 32.012 0 0 1 -16 27.7v81.169a128 128 0 1 0 -176 0zm-72-92.864c0-88.224 71.775-160 160-160s160 71.776 160 160-71.775 160-160 160-160-71.776-160-160zm16 0c0 79.4 64.6 144 144 144s144-64.6 144-144-64.6-144-144-144-144 64.6-144 144zm290.617 157.9 11.283-11.283c-.082-.091-.159-.186-.247-.274l-27.738-27.738q-5.4 5.908-11.314 11.314l27.738 27.738c.092.088.187.164.278.243z" data-original="#000000" class="active-path" data-old_color="#000000" fill="#E3E9ED"/></g> </svg>
