<svg width="68" height="52" viewBox="0 0 68 52" fill="none" xmlns="http://www.w3.org/2000/svg">
<path d="M52 26C52 35.941 43.941 44 34 44C24.059 44 16 35.941 16 26C16 16.059 24.059 8 34 8C43.941 8 52 16.059 52 26Z" fill="#F95858"/>
<path d="M39.485 36.879C39.474 36.835 38.34 32.5 34 32.5C29.66 32.5 28.526 36.835 28.515 36.879C28.462 37.092 28.559 37.31 28.747 37.423C28.935 37.535 29.18 37.509 29.343 37.363C29.352 37.355 30.356 36.5 34 36.5C37.59 36.5 38.617 37.33 38.656 37.363C38.751 37.453 38.875 37.5 39 37.5C39.084 37.5 39.169 37.479 39.246 37.436C39.442 37.324 39.54 37.097 39.485 36.879ZM45 20C39.446 20 37.198 15.633 37.105 15.447C36.858 14.953 37.058 14.352 37.552 14.105C38.045 13.858 38.644 14.057 38.892 14.548C38.967 14.694 40.713 18 45 18C45.553 18 46 18.448 46 19C46 19.552 45.553 20 45 20ZM23 20C22.448 20 22 19.552 22 19C22 18.448 22.448 18 23 18C28.083 18 28.996 14.88 29.033 14.747C29.178 14.219 29.725 13.899 30.252 14.038C30.782 14.177 31.103 14.711 30.97 15.243C30.921 15.437 29.704 20 23 20Z" fill="#664500"/>
<path d="M28 28C29.3807 28 30.5 26.433 30.5 24.5C30.5 22.567 29.3807 21 28 21C26.6193 21 25.5 22.567 25.5 24.5C25.5 26.433 26.6193 28 28 28Z" fill="#664500"/>
<path d="M40 28C41.3807 28 42.5 26.433 42.5 24.5C42.5 22.567 41.3807 21 40 21C38.6193 21 37.5 22.567 37.5 24.5C37.5 26.433 38.6193 28 40 28Z" fill="#664500"/>
<path d="M64 3H48C46.9 3 46.01 3.9 46.01 5L46 23L50 19H64C65.1 19 66 18.1 66 17V5C66 3.9 65.1 3 64 3ZM57 12H55V6H57V12ZM57 16H55V14H57V16Z" fill="#2196F3"/>
</svg>
