<svg width="68" height="52" viewBox="0 0 68 52" fill="none" xmlns="http://www.w3.org/2000/svg">
<path d="M34 44C43.9411 44 52 35.9411 52 26C52 16.0589 43.9411 8 34 8C24.0589 8 16 16.0589 16 26C16 35.9411 24.0589 44 34 44Z" fill="#F95858"/>
<path d="M26.515 31.621C26.56 31.8 27.683 36 34 36C40.318 36 41.44 31.8 41.485 31.621C41.54 31.404 41.442 31.179 41.248 31.067C41.053 30.956 40.809 30.989 40.648 31.144C40.629 31.163 38.694 33 34 33C29.306 33 27.37 31.163 27.352 31.145C27.256 31.05 27.128 31 27 31C26.916 31 26.831 31.021 26.754 31.064C26.558 31.176 26.46 31.403 26.515 31.621Z" fill="#664500"/>
<path d="M28 25C29.3807 25 30.5 23.433 30.5 21.5C30.5 19.567 29.3807 18 28 18C26.6193 18 25.5 19.567 25.5 21.5C25.5 23.433 26.6193 25 28 25Z" fill="#664500"/>
<path d="M40 25C41.3807 25 42.5 23.433 42.5 21.5C42.5 19.567 41.3807 18 40 18C38.6193 18 37.5 19.567 37.5 21.5C37.5 23.433 38.6193 25 40 25Z" fill="#664500"/>
<path d="M38.3376 46.5632C38.7758 45.1405 39.4922 42.4603 39.912 41.4398C40.2513 40.6164 40.5682 39.7889 40.9576 39.3988C41.3469 39.0095 42.0092 39.0399 42.4087 39.4381C42.4087 39.4381 44.0806 40.5723 44.6799 41.3226C45.4302 41.9199 46.5658 43.5959 46.5658 43.5959C46.9653 43.9954 46.9958 44.657 46.6064 45.047C46.2164 45.4364 45.3889 45.7533 44.5648 46.0926C43.545 46.5124 40.8641 47.2275 39.4414 47.667C39.1983 47.7415 38.2631 46.8063 38.3376 46.5632Z" fill="#D99E82"/>
<path d="M52.9501 27.4063C52.1707 28.1857 52.1707 29.4486 52.9501 30.228L55.7718 33.0504C56.5512 33.8292 57.8155 33.8292 58.5935 33.0504L61.4159 30.228C62.1947 29.4486 62.1947 28.1857 61.4159 27.4063L58.5942 24.5846C57.8155 23.8051 56.5519 23.8051 55.7725 24.5846L52.9501 27.4063Z" fill="#EA596E"/>
<path d="M40.9576 39.3988L43.7814 42.2226L46.6004 45.043L57.1831 34.461L51.539 28.8175L40.9576 39.3988Z" fill="#2196F3"/>
<path d="M40.4666 47.352C40.4666 47.352 38.6321 48.3603 38.1364 47.8646C37.6408 47.3689 38.6545 45.5386 38.6545 45.5386C38.6545 45.5386 40.3921 45.5711 40.4666 47.352Z" fill="#292F33"/>
<path d="M60.7102 30.9336L55.0661 25.2895L51.5394 28.8168L57.1829 34.461L60.7102 30.9336Z" fill="#CCD6DD"/>
<path d="M60.0046 31.6386L54.3612 25.9951L53.6556 26.7007L59.299 32.3442L60.0046 31.6386ZM58.5941 33.0511L52.95 27.407L52.2444 28.1126L57.8885 33.7561L58.5941 33.0511Z" fill="#99AAB5"/>
</svg>
