<svg width="68" height="52" viewBox="0 0 68 52" fill="none" xmlns="http://www.w3.org/2000/svg">
<path d="M52 26C52 35.941 43.941 44 34 44C24.059 44 16 35.941 16 26C16 16.059 24.059 8 34 8C43.941 8 52 16.059 52 26Z" fill="#FFCC4D"/>
<path d="M34 38C36.2091 38 38 35.7614 38 33C38 30.2386 36.2091 28 34 28C31.7909 28 30 30.2386 30 33C30 35.7614 31.7909 38 34 38Z" fill="#664500"/>
<path d="M28 25C29.3807 25 30.5 23.433 30.5 21.5C30.5 19.567 29.3807 18 28 18C26.6193 18 25.5 19.567 25.5 21.5C25.5 23.433 26.6193 25 28 25Z" fill="#664500"/>
<path d="M40 25C41.3807 25 42.5 23.433 42.5 21.5C42.5 19.567 41.3807 18 40 18C38.6193 18 37.5 19.567 37.5 21.5C37.5 23.433 38.6193 25 40 25Z" fill="#664500"/>
<path d="M64 2H48C46.9 2 46.01 2.9 46.01 4L46 22L50 18H64C65.1 18 66 17.1 66 16V4C66 2.9 65.1 2 64 2ZM57 11H55V5H57V11ZM57 15H55V13H57V15Z" fill="#2196F3"/>
</svg>
