<svg width="17" height="18" viewBox="0 0 17 18" fill="none" xmlns="http://www.w3.org/2000/svg">
<path d="M8 0.666656L3.41667 8.16666H12.5833L8 0.666656ZM8 3.86666L9.60833 6.49999H6.38333L8 3.86666ZM12.5833 9.83332C10.5083 9.83332 8.83333 11.5083 8.83333 13.5833C8.83333 15.6583 10.5083 17.3333 12.5833 17.3333C14.6583 17.3333 16.3333 15.6583 16.3333 13.5833C16.3333 11.5083 14.6583 9.83332 12.5833 9.83332ZM12.5833 15.6667C11.4333 15.6667 10.5 14.7333 10.5 13.5833C10.5 12.4333 11.4333 11.5 12.5833 11.5C13.7333 11.5 14.6667 12.4333 14.6667 13.5833C14.6667 14.7333 13.7333 15.6667 12.5833 15.6667ZM0.5 16.9167H7.16667V10.25H0.5V16.9167ZM2.16667 11.9167H5.5V15.25H2.16667V11.9167Z" fill="#00A5DF"/>
</svg>
