<svg width="68" height="52" viewBox="0 0 68 52" fill="none" xmlns="http://www.w3.org/2000/svg">
<g opacity="0.5">
<path d="M34 44C43.9411 44 52 35.9411 52 26C52 16.0589 43.9411 8 34 8C24.0589 8 16 16.0589 16 26C16 35.9411 24.0589 44 34 44Z" fill="#FFCC4D"/>
<path d="M34 37C35.6569 37 37 35.6569 37 34C37 32.3431 35.6569 31 34 31C32.3431 31 31 32.3431 31 34C31 35.6569 32.3431 37 34 37Z" fill="#664500"/>
<path d="M33.312 24.612C33.136 24.469 32.885 24.465 32.702 24.598C32.69 24.607 31.442 25.5 29 25.5C26.559 25.5 25.31 24.607 25.3 24.6C25.117 24.463 24.865 24.467 24.689 24.609C24.511 24.751 24.451 24.995 24.543 25.203C24.603 25.338 26.043 28.5 29 28.5C31.958 28.5 33.397 25.338 33.457 25.203C33.549 24.996 33.489 24.754 33.312 24.612ZM43.312 24.612C43.136 24.469 42.886 24.464 42.702 24.598C42.69 24.607 41.441 25.5 39 25.5C36.56 25.5 35.31 24.607 35.3 24.6C35.117 24.463 34.866 24.467 34.689 24.609C34.511 24.751 34.451 24.995 34.543 25.203C34.603 25.338 36.043 28.5 39 28.5C41.958 28.5 43.397 25.338 43.457 25.203C43.549 24.996 43.489 24.754 43.312 24.612Z" fill="#664500"/>
<path d="M50.43 20.534C50.434 20.49 50.453 20.457 50.453 20.411C50.453 19.657 49.905 19.223 49.228 19.223H45.646L49.925 13.23C50.131 12.947 50.207 12.777 50.207 12.419C50.207 11.684 49.567 11.57 49.322 11.57H43.973L43.941 10.882C43.941 10.882 42.532 11.713 42.438 11.77C42.344 11.827 41.933 12.142 41.933 12.757C41.933 13.511 42.479 13.944 43.158 13.944H46.307L42.046 19.937C41.952 20.088 41.802 20.37 41.802 20.672C41.802 21.294 42.31 21.596 42.913 21.596H49.228C49.486 21.596 49.743 21.52 49.909 21.42L51.412 20.532H50.43V20.534Z" fill="#FFAC33"/>
<path d="M47.7711 13.084H44.6221C43.9431 13.084 43.3971 12.651 43.3971 11.897C43.3971 11.143 43.9431 10.709 44.6221 10.709H50.7861C51.0311 10.709 51.6711 10.822 51.6711 11.557C51.6711 11.915 51.5951 12.085 51.3891 12.368L47.1101 18.361H50.6921C51.3691 18.361 51.9171 18.794 51.9171 19.548C51.9171 20.302 51.3691 20.735 50.6921 20.735H44.3771C43.7741 20.735 43.2661 20.433 43.2661 19.811C43.2661 19.509 43.4161 19.227 43.5101 19.076L47.7711 13.084Z" fill="#2A6797"/>
<path d="M40.886 15.48C40.889 15.447 40.904 15.422 40.904 15.388C40.904 14.824 40.494 14.499 39.987 14.499H37.305L40.508 10.012C40.664 9.80001 40.72 9.67301 40.72 9.40601C40.72 8.85601 40.241 8.77101 40.057 8.77101H36.053L36.029 8.25601C36.029 8.25601 34.974 8.87801 34.904 8.92101C34.834 8.96401 34.526 9.20001 34.526 9.66001C34.526 10.224 34.935 10.549 35.443 10.549H37.8L34.61 15.036C34.54 15.149 34.427 15.36 34.427 15.586C34.427 16.052 34.807 16.277 35.259 16.277H39.987C40.18 16.277 40.372 16.22 40.497 16.145L41.622 15.48H40.886Z" fill="#FFAC33"/>
<path d="M38.8959 9.903H36.5389C36.0309 9.903 35.6219 9.579 35.6219 9.014C35.6219 8.45 36.0309 8.125 36.5389 8.125H41.1539C41.3379 8.125 41.8169 8.21 41.8169 8.76C41.8169 9.028 41.7599 9.155 41.6059 9.367L38.4029 13.854H41.0849C41.5899 13.854 41.9999 14.178 41.9999 14.743C41.9999 15.308 41.5899 15.632 41.0829 15.632H36.3549C35.9029 15.632 35.5229 15.406 35.5229 14.941C35.5229 14.715 35.6359 14.504 35.7059 14.391L38.8959 9.903Z" fill="#2A6797"/>
<path d="M33.7409 18.425C33.7439 18.397 33.7559 18.376 33.7559 18.346C33.7559 17.863 33.4049 17.585 32.9709 17.585H30.6759L33.4179 13.745C33.5499 13.564 33.5989 13.455 33.5989 13.226C33.5989 12.755 33.1889 12.682 33.0319 12.682H29.6049L29.5839 12.241L28.6209 12.81C28.5609 12.847 28.2969 13.048 28.2969 13.443C28.2969 13.926 28.6469 14.204 29.0819 14.204H31.0989L28.3689 18.044C28.3089 18.141 28.2119 18.322 28.2119 18.515C28.2119 18.914 28.5379 19.107 28.9239 19.107H32.9709C33.1359 19.107 33.3009 19.058 33.4069 18.994L34.3699 18.425H33.7409Z" fill="#FFAC33"/>
<path d="M32.0369 13.652H30.0199C29.5849 13.652 29.2349 13.374 29.2349 12.891C29.2349 12.408 29.5849 12.13 30.0199 12.13H33.9699C34.1269 12.13 34.5369 12.203 34.5369 12.674C34.5369 12.903 34.4889 13.012 34.3559 13.193L31.6139 17.033H33.9089C34.3429 17.033 34.6939 17.311 34.6939 17.794C34.6939 18.277 34.3429 18.555 33.9089 18.555H29.8619C29.4759 18.555 29.1499 18.362 29.1499 17.963C29.1499 17.77 29.2459 17.589 29.3069 17.492L32.0369 13.652Z" fill="#2A6797"/>
</g>
</svg>
