<svg width="68" height="52" viewBox="0 0 68 52" fill="none" xmlns="http://www.w3.org/2000/svg">
<path d="M48.4151 17.586L39.4151 8.586C39.0541 8.225 38.5531 8 38.0001 8C36.8961 8 36.0011 8.896 36.0001 10C36.0001 10.552 36.2241 11.053 36.5861 11.415L32.7271 15.274L41.7271 24.274L45.5861 20.415C45.9481 20.776 46.4481 21 47.0001 21C48.1041 21 49.0011 20.104 49.0001 19C49.0001 18.448 48.7761 17.948 48.4151 17.586Z" fill="#E0E0E0"/>
<path d="M38 8H23C20.791 8 19 9.791 19 12V40C19 42.209 20.791 44 23 44H45C47.209 44 49 42.209 49 40V19H40C39 19 38 18 38 17V8Z" fill="#CCD6DD"/>
<path d="M38 8H36V17C36 19.209 37.791 21 40 21H49V19H40C39 19 38 18 38 17V8ZM33 16C33 16.552 32.552 17 32 17H24C23.448 17 23 16.552 23 16C23 15.448 23.448 15 24 15H32C32.552 15 33 15.448 33 16ZM33 20C33 20.552 32.552 21 32 21H24C23.448 21 23 20.552 23 20C23 19.448 23.448 19 24 19H32C32.552 19 33 19.448 33 20ZM45 24C45 24.552 44.553 25 44 25H24C23.448 25 23 24.552 23 24C23 23.448 23.448 23 24 23H44C44.553 23 45 23.448 45 24ZM45 28C45 28.553 44.553 29 44 29H24C23.448 29 23 28.553 23 28C23 27.447 23.448 27 24 27H44C44.553 27 45 27.447 45 28ZM45 32C45 32.553 44.553 33 44 33H24C23.448 33 23 32.553 23 32C23 31.447 23.448 31 24 31H44C44.553 31 45 31.447 45 32ZM45 36C45 36.553 44.553 37 44 37H24C23.448 37 23 36.553 23 36C23 35.447 23.448 35 24 35H44C44.553 35 45 35.447 45 36Z" fill="#2196F3"/>
</svg>
